<?xml version="1.0" standalone="no"?>
<!DOCTYPE svg PUBLIC "-//W3C//DTD SVG 20010904//EN"
 "http://www.w3.org/TR/2001/REC-SVG-20010904/DTD/svg10.dtd">
<svg version="1.0" xmlns="http://www.w3.org/2000/svg"
 width="360.000000pt" height="534.000000pt" viewBox="0 0 360.000000 534.000000"
 preserveAspectRatio="xMidYMid meet">
<metadata>
Created by potrace 1.16, written by Peter Selinger 2001-2019
</metadata>
<g transform="translate(0.000000,534.000000) scale(0.100000,-0.100000)"
fill="#000000" stroke="none">
<path d="M1067 5256 c-138 -50 -282 -229 -294 -367 -10 -101 12 -139 78 -139
22 0 58 9 81 21 37 19 39 22 22 33 -29 19 -110 39 -139 33 -26 -4 -26 -4 -20
37 18 107 158 291 256 336 56 25 114 26 128 3 10 -17 10 -17 11 0 0 16 -54 57
-75 57 -5 -1 -27 -7 -48 -14z"/>
<path d="M1421 5170 c85 -173 33 -495 -132 -824 -88 -176 -296 -466 -328 -458
-7 1 -10 -1 -7 -6 2 -4 1 -14 -4 -22 -7 -11 -11 -11 -24 -1 -14 12 -12 46 3
37 4 -3 7 5 7 16 0 16 -6 12 -30 -19 -42 -53 -110 -116 -114 -105 -1 5 7 34
18 65 18 46 32 65 85 106 93 73 100 87 100 199 0 93 0 94 -33 123 -64 58 -162
30 -267 -77 -105 -106 -158 -248 -135 -359 16 -78 26 -75 22 5 l-4 68 48 -24
c39 -20 57 -23 92 -18 l43 6 -6 -28 c-4 -16 -11 -44 -15 -61 -5 -18 -5 -33 0
-33 5 0 10 8 12 18 3 16 4 16 11 -1 15 -40 -117 -66 -167 -33 -61 39 -72 135
-32 276 5 18 4 21 -3 10 -15 -24 -41 -146 -41 -192 0 -26 9 -57 25 -84 14 -24
21 -45 16 -49 -6 -3 -8 -14 -6 -25 2 -12 0 -18 -4 -15 -5 3 -7 21 -5 40 1 19
0 36 -4 39 -4 2 -8 -6 -9 -17 -1 -12 -4 -31 -6 -42 -3 -11 1 -27 7 -35 10 -13
9 -13 -6 -1 -10 7 -16 17 -13 21 3 5 1 11 -4 14 -14 9 -21 -20 -8 -35 10 -11
9 -11 -5 0 -10 7 -14 19 -11 29 6 15 5 15 -10 3 -13 -10 -14 -17 -7 -26 8 -10
8 -15 -1 -21 -7 -4 -9 -3 -6 3 4 6 -2 18 -13 28 -21 19 -28 9 -10 -13 7 -9 7
-9 -2 -2 -8 7 -18 4 -32 -8 -16 -13 -18 -13 -8 -1 6 9 9 18 6 22 -9 8 27 58
37 51 5 -3 9 -10 9 -15 0 -6 -4 -8 -9 -4 -5 3 -12 1 -15 -4 -4 -5 2 -8 11 -6
10 1 17 10 17 19 -2 21 13 21 20 -1 4 -14 4 -14 3 2 -1 11 3 20 8 21 6 0 9 -9
8 -20 -3 -20 -2 -21 6 -1 9 19 10 19 10 1 1 -31 11 -12 15 28 1 24 -3 40 -13
48 -13 10 -14 9 -5 -1 13 -14 7 -54 -7 -46 -4 3 -6 13 -3 23 5 15 4 15 -6 -1
-6 -9 -16 -14 -22 -11 -6 4 -8 3 -5 -3 4 -6 0 -13 -8 -17 -19 -7 -19 -2 1 37
20 39 6 26 -30 -28 -14 -22 -26 -34 -26 -27 0 20 46 106 75 140 14 17 30 46
36 64 8 31 5 30 -55 -32 -35 -36 -62 -68 -60 -72 2 -4 0 -9 -6 -13 -6 -4 -7
-11 -4 -17 5 -7 2 -8 -6 -3 -10 6 -12 4 -7 -9 4 -10 3 -15 -3 -11 -6 3 -10 -1
-10 -10 0 -9 -7 -23 -15 -31 -8 -8 -12 -22 -9 -32 5 -15 4 -14 -6 1 -11 18
-13 18 -33 0 -22 -18 -22 -18 -4 3 9 11 14 24 10 27 -3 4 -1 7 5 7 5 0 12 -3
15 -7 2 -5 2 -2 0 5 -1 7 1 10 6 7 5 -3 13 0 17 6 4 8 3 9 -4 5 -18 -11 -14 5
6 28 17 21 17 21 -5 2 -22 -18 -32 -11 -15 10 4 5 0 2 -9 -8 -9 -9 -19 -14
-23 -11 -3 4 3 17 15 29 13 14 17 24 10 29 -6 3 -9 10 -6 15 3 5 1 11 -4 14
-5 3 -7 -8 -6 -24 1 -17 -1 -33 -6 -36 -10 -6 -11 -1 -13 46 -2 53 -21 53 -22
-1 0 -30 3 -45 8 -37 5 8 7 3 4 -15 -3 -18 -1 -25 6 -21 7 5 8 2 3 -6 -5 -8
-4 -11 3 -6 14 9 7 -34 -9 -48 -8 -8 -8 -5 0 12 6 12 9 23 6 23 -3 1 -11 2
-17 3 -9 1 -13 26 -13 88 0 47 -3 81 -7 75 -17 -27 -7 -180 17 -269 4 -17 3
-28 -3 -28 -12 0 -30 72 -41 170 -7 66 -9 69 -10 25 -1 -53 13 -158 24 -187 8
-21 -11 -24 -48 -7 -32 14 -46 41 -53 97 -6 55 9 39 20 -20 11 -60 21 -51 18
14 -5 75 10 134 50 205 l32 56 11 -33 c16 -47 48 -69 91 -64 46 6 71 20 123
66 39 36 41 41 41 94 0 48 -4 59 -29 85 -36 35 -71 37 -126 8 -44 -24 -128
-97 -162 -143 -13 -17 -23 -24 -23 -17 0 7 -5 9 -10 6 -8 -5 -8 -11 0 -20 7
-9 6 -16 -4 -24 -12 -10 -14 -9 -11 6 1 10 0 23 -4 28 -11 20 -9 33 8 30 9 -1
18 1 21 4 3 4 22 17 42 30 32 19 109 101 95 101 -3 0 9 22 28 50 18 27 43 76
55 107 26 69 40 180 21 169 -7 -5 -10 -10 -7 -13 3 -3 -4 -28 -15 -55 -11 -28
-25 -74 -31 -101 -6 -28 -26 -75 -45 -103 -19 -29 -32 -57 -29 -63 9 -14 -73
-80 -116 -93 -66 -20 -108 16 -108 93 0 18 4 28 10 24 6 -3 10 -21 10 -38 0
-18 5 -39 11 -47 7 -11 8 -6 4 20 -18 104 81 295 193 372 34 24 52 29 82 26
37 -3 38 -2 23 14 -22 24 -65 23 -116 -4 -23 -12 -46 -21 -50 -20 -5 1 -6 -2
-3 -7 10 -15 -14 -24 -29 -11 -21 18 -19 35 3 19 14 -11 15 -11 5 1 -18 19
-16 35 1 21 12 -10 14 -7 11 19 -4 29 -3 31 13 18 15 -12 16 -11 3 5 -7 9 -15
17 -17 17 -6 0 -70 -131 -79 -160 -7 -25 -7 -25 12 -5 11 11 17 22 12 25 -4 3
3 10 17 17 32 15 30 7 -10 -38 -22 -23 -37 -33 -40 -26 -4 7 -4 2 -2 -11 2
-12 1 -20 -4 -17 -9 6 -53 -115 -77 -215 -27 -114 -24 -306 6 -384 27 -69 78
-129 135 -159 67 -35 197 -30 301 13 11 5 28 11 38 14 10 3 15 10 12 16 -3 5
0 7 9 4 14 -5 64 20 78 41 5 6 8 3 8 -7 0 -10 5 -18 11 -18 5 0 7 5 4 11 -8
12 24 51 36 43 5 -3 9 1 9 9 0 8 8 21 17 28 11 10 14 10 9 2 -4 -7 -5 -13 -3
-13 5 0 60 47 127 107 26 24 50 40 54 36 4 -4 4 1 0 12 -6 19 -6 19 11 4 16
-16 16 -18 -1 -38 -22 -25 -42 -29 -23 -3 7 9 1 6 -13 -7 -15 -13 -25 -27 -23
-31 6 -9 -90 -93 -155 -137 -67 -44 -74 -48 -65 -33 5 8 3 11 -6 8 -8 -3 -13
-10 -12 -16 2 -6 -3 -9 -10 -6 -7 2 -35 -7 -63 -20 -102 -49 -223 -70 -301
-52 -107 24 -185 118 -214 256 -11 52 -7 221 6 295 4 24 4 26 -4 9 -5 -11 -12
-52 -16 -90 -4 -38 -8 -78 -10 -90 -6 -40 15 -184 35 -237 37 -99 125 -175
226 -192 21 -4 53 -20 69 -34 69 -63 124 -82 232 -82 97 0 155 13 253 58 95
44 107 46 106 22 -1 -12 11 -27 29 -37 17 -9 32 -20 35 -24 11 -14 79 -38 93
-32 15 5 137 -50 137 -62 0 -4 -17 -4 -37 -1 l-38 5 35 -15 c23 -10 50 -13 78
-9 38 5 43 4 38 -12 -44 -149 -95 -416 -102 -527 -7 -122 1 -135 91 -157 66
-16 70 -16 95 2 24 17 28 17 115 -1 67 -14 94 -25 110 -43 25 -30 85 -50 128
-41 24 5 28 4 17 -4 -22 -16 4 -14 43 3 56 23 156 146 307 375 80 121 148 220
151 221 28 1 -244 -1015 -446 -1666 -92 -295 -117 -375 -270 -859 -37 -116
-88 -277 -114 -360 -27 -82 -51 -160 -55 -172 -7 -22 -5 -23 50 -23 42 0 60 4
69 17 12 16 15 16 57 0 29 -12 73 -17 135 -17 79 0 92 2 97 18 3 9 48 170 101
357 53 187 101 344 106 350 10 11 0 14 339 -107 521 -185 696 -249 708 -261
10 -10 6 -47 -21 -185 l-34 -172 64 0 c61 0 63 1 63 26 0 14 4 34 10 44 9 18
12 17 67 -2 61 -22 74 -33 66 -55 -4 -10 7 -13 44 -13 l49 0 32 193 c77 467
113 711 152 1017 12 95 36 332 52 520 20 229 16 919 -6 1105 -39 337 -101 567
-193 724 -49 82 -140 167 -196 182 -23 6 -64 19 -92 28 -27 9 -54 17 -60 17
-5 0 -23 6 -39 13 -27 11 -117 8 -138 -5 -4 -3 -42 6 -85 20 -43 13 -111 35
-152 47 -58 18 -77 29 -93 53 -18 27 -36 35 -132 64 -61 18 -120 32 -132 32
-82 -1 -290 -237 -480 -547 -9 -14 -11 1 -7 68 7 110 1 135 -34 144 -17 4 -29
2 -31 -4 -4 -13 -32 -15 -32 -2 0 5 6 12 13 15 6 3 -1 3 -16 -1 -33 -6 -173
41 -181 62 -3 8 -22 21 -42 30 -47 19 -49 18 -146 -123 -40 -59 -104 -138
-141 -177 l-69 -70 6 97 5 97 69 68 c388 385 593 976 443 1272 -31 59 -32 50
-4 -20 114 -282 -82 -821 -434 -1193 l-56 -59 8 49 c4 27 9 61 11 76 1 15 10
71 19 124 9 53 15 105 12 115 -3 10 -1 17 4 13 5 -3 9 3 9 13 0 15 2 16 11 3
8 -12 9 -10 4 7 -10 34 35 91 92 117 26 13 73 47 103 76 48 46 49 48 10 16
-48 -39 -140 -91 -140 -79 0 3 22 50 50 103 57 111 96 210 129 326 22 75 25
80 48 76 13 -2 32 -16 43 -30 14 -17 20 -20 20 -9 0 14 -47 61 -69 69 -7 2 -8
30 -1 88 6 47 8 114 4 150 -6 73 -37 177 -60 206 -14 18 -14 17 -3 -6z m-957
-1175 c20 -11 36 -25 36 -31 0 -15 -61 -61 -106 -80 -37 -16 -68 -12 -96 13
-22 19 -33 72 -19 86 8 8 11 2 11 -20 0 -18 4 -34 9 -37 5 -3 6 15 3 39 -4 42
-2 48 32 80 l37 35 29 -33 c16 -18 45 -42 64 -52z m1880 -91 c3 -9 6 -49 6
-89 l0 -73 -67 24 c-38 13 -74 26 -81 29 -16 6 -10 13 70 81 57 49 63 51 72
28z m-95 -175 c47 -17 90 -35 94 -39 8 -7 -7 -176 -19 -226 -6 -22 -6 -21
-132 23 -70 25 -142 50 -159 56 -18 6 -33 15 -33 20 0 12 148 197 157 197 4 0
45 -14 92 -31z m772 -60 c74 -22 140 -42 147 -45 25 -8 107 -232 91 -248 -3
-4 -504 150 -589 180 -12 4 -8 11 15 31 47 39 176 123 190 123 7 0 73 -18 146
-41z m-301 -184 c118 -36 554 -176 557 -179 16 -15 53 -376 40 -376 -6 0 -209
65 -617 199 l-145 47 0 55 c1 30 5 99 9 154 10 114 25 140 74 125 15 -5 52
-16 82 -25z m-565 -40 c132 -46 150 -55 150 -74 0 -27 -115 -190 -133 -191
-13 0 -329 98 -344 106 -4 3 16 41 44 87 82 133 87 139 111 131 12 -4 90 -30
172 -59z m-647 16 c9 -5 51 -22 93 -36 l76 -26 -9 -57 c-5 -31 -11 -58 -14
-61 -7 -8 -233 69 -240 81 -4 6 -3 8 3 5 5 -3 29 14 53 38 24 25 39 45 33 45
-6 0 -13 -4 -15 -10 -2 -6 -8 -6 -18 0 -13 8 -12 10 3 10 10 0 15 5 12 10 -8
13 0 13 23 1z m20 -171 c64 -22 118 -42 120 -44 2 -3 -39 -83 -63 -123 -1 -2
-50 13 -109 33 -85 29 -106 39 -102 53 2 9 10 40 16 69 7 28 14 52 17 52 3 0
58 -18 121 -40z m417 -97 c61 -19 131 -41 157 -49 l47 -15 -62 -99 c-34 -55
-67 -99 -74 -100 -14 0 -261 66 -298 80 -20 8 -22 13 -15 43 4 19 26 69 50
111 36 67 45 76 63 70 12 -3 72 -22 132 -41z m-471 -64 c53 -16 96 -33 96 -36
0 -4 -49 -97 -66 -124 -4 -7 -154 38 -166 49 -8 9 21 142 32 142 4 0 51 -14
104 -31z m1365 -130 c152 -50 319 -105 371 -122 52 -17 101 -35 108 -41 11 -8
13 -58 10 -257 -1 -136 -7 -251 -11 -256 -9 -8 -834 263 -854 281 -8 8 -6 40
12 131 12 66 30 173 40 238 14 91 21 117 33 117 8 0 139 -41 291 -91z m-1429
-33 c30 -10 61 -19 68 -22 10 -3 3 -23 -24 -72 l-38 -69 -50 15 c-28 8 -54 17
-58 21 -8 7 8 127 19 143 3 5 10 7 17 5 6 -2 36 -12 66 -21z m442 -41 c73 -20
134 -38 136 -40 2 -1 -22 -44 -54 -94 -41 -65 -62 -90 -73 -87 -9 3 -56 15
-105 27 l-89 22 7 85 c8 109 15 135 32 128 8 -3 74 -22 146 -41z m-91 -235
c45 -10 83 -21 86 -23 4 -5 -66 -96 -89 -115 -12 -9 -26 -10 -50 -4 -28 7 -34
14 -40 48 -10 57 -9 114 1 114 6 0 47 -9 92 -20z m920 -281 c129 -44 319 -109
424 -145 104 -35 194 -69 199 -74 7 -7 4 -75 -7 -197 -31 -332 -49 -464 -64
-470 -8 -3 -78 17 -156 45 -78 28 -279 98 -447 157 -168 59 -313 111 -322 116
-10 6 -18 18 -18 27 0 10 22 112 49 227 27 116 57 246 66 290 18 95 22 105 33
105 5 0 114 -36 243 -81z m-116 -815 c496 -174 628 -223 642 -237 13 -13 3
-90 -57 -422 -24 -133 -59 -320 -66 -358 -4 -17 -12 -27 -24 -27 -15 0 -201
63 -380 128 -30 11 -183 66 -340 122 -257 92 -318 119 -305 139 4 7 126 449
175 633 29 108 36 128 48 128 3 0 142 -48 307 -106z m-675 -489 c67 -24 71
-29 53 -81 -8 -24 -19 -44 -24 -44 -4 0 -33 9 -64 21 -59 22 -64 31 -44 88 12
35 20 37 79 16z m-51 -266 c46 -20 47 -25 21 -94 -12 -30 -15 -31 -86 -4 l-56
21 7 36 c15 79 21 81 114 41z m-101 -260 c34 -11 62 -25 62 -30 0 -33 -26 -99
-40 -99 -20 0 -108 34 -118 46 -10 10 15 104 27 104 4 0 35 -9 69 -21z m1497
-238 l50 -19 -1 -52 c-1 -28 -4 -54 -7 -57 -3 -3 -34 6 -69 19 -67 26 -69 30
-53 106 6 27 16 27 80 3z m-1589 -37 c73 -25 77 -30 59 -92 -9 -29 -18 -52
-22 -52 -3 0 -35 10 -70 22 -63 22 -65 23 -60 53 7 42 25 85 35 85 5 0 31 -7
58 -16z"/>
<path d="M579 4982 c-133 -85 -258 -311 -234 -422 8 -37 61 -66 103 -55 30 7
102 55 84 55 -7 0 -10 5 -7 11 4 6 14 8 23 4 9 -3 13 -3 10 1 -4 3 18 35 48
70 80 95 65 101 -22 9 -41 -44 -72 -85 -70 -91 5 -14 -56 -44 -89 -44 -46 0
-65 32 -63 108 0 37 3 51 5 32 2 -19 6 -51 10 -70 6 -32 7 -30 13 27 17 160
180 363 292 363 22 0 38 -5 38 -12 0 -6 3 -8 7 -5 3 4 -2 16 -12 27 -27 29
-82 26 -136 -8z"/>
<path d="M1170 4908 c-64 -31 -189 -159 -230 -238 -28 -54 -34 -78 -38 -145
-3 -71 -1 -84 20 -115 22 -32 29 -35 78 -38 43 -3 65 2 105 23 69 36 88 51 79
66 -4 8 -3 10 4 5 8 -5 12 0 12 13 0 12 -5 21 -10 21 -30 0 41 82 143 167 15
13 27 30 27 38 0 24 -49 -7 -127 -79 -35 -32 -63 -52 -63 -44 0 8 -12 25 -27
39 -15 13 -21 16 -14 6 23 -30 7 -28 -33 4 -40 34 -42 48 -4 29 12 -6 3 6 -21
28 -45 39 -45 40 -28 66 10 14 41 44 70 67 103 83 196 103 236 53 14 -17 21
-21 21 -12 0 9 -12 27 -26 42 -22 21 -36 26 -78 26 -31 -1 -69 -10 -96 -22z"/>
<path d="M615 4597 c-41 -22 -56 -64 -36 -96 8 -13 12 -13 28 0 16 13 17 13 4
-3 -19 -25 -49 -23 -54 5 -4 22 -4 22 -6 -1 -1 -16 6 -26 19 -29 22 -6 26 -18
10 -28 -15 -9 -12 -88 3 -109 13 -17 16 -17 44 -3 31 16 77 65 85 89 4 11 8
11 20 0 23 -18 44 -6 78 46 49 73 24 121 -35 69 -32 -27 -37 -73 -11 -93 13
-9 14 -13 3 -17 -8 -3 -19 -2 -24 1 -14 9 -20 93 -8 111 5 9 3 12 -6 9 -8 -3
-22 2 -32 10 -14 13 -17 13 -12 1 3 -9 -6 -20 -25 -31 -27 -15 -45 -9 -20 7
12 7 14 62 2 69 -4 2 -16 -1 -27 -7z"/>
</g>
</svg>
